<?xml version="1.0" encoding="UTF-8" standalone="no"?>
<svg
   xmlns:dc="http://purl.org/dc/elements/1.1/"
   xmlns:cc="http://creativecommons.org/ns#"
   xmlns:rdf="http://www.w3.org/1999/02/22-rdf-syntax-ns#"
   xmlns:svg="http://www.w3.org/2000/svg"
   xmlns="http://www.w3.org/2000/svg"
   viewBox="0 0 377.95334 188.976"
   height="188.976"
   width="377.95334"
   xml:space="preserve"
   id="svg2"
   version="1.1"><metadata
     id="metadata8"><rdf:RDF><cc:Work
         rdf:about=""><dc:format>image/svg+xml</dc:format><dc:type
           rdf:resource="http://purl.org/dc/dcmitype/StillImage" /></cc:Work></rdf:RDF></metadata><defs
     id="defs6"><clipPath
       id="clipPath26"
       clipPathUnits="userSpaceOnUse"><path
         id="path24"
         d="M 0,141.732 H 283.465 V 0 H 0 Z" /></clipPath></defs><g
     transform="matrix(1.3333333,0,0,-1.3333333,0,188.976)"
     id="g10"><g
       transform="translate(80.1055,64.0184)"
       id="g12"><path
         id="path14"
         style="fill:#3e70bc;fill-opacity:1;fill-rule:nonzero;stroke:none"
         d="m 0,0 15.36,20.557 h 6.012 V 0 h -5.12 L 16.136,12.334 H 15.36 L 6.245,0 Z" /></g><g
       transform="translate(80.1055,64.0184)"
       id="g16"><path
         id="path18"
         style="fill:none;stroke:#3e70bc;stroke-width:1;stroke-linecap:butt;stroke-linejoin:miter;stroke-miterlimit:10;stroke-dasharray:none;stroke-opacity:1"
         d="m 0,0 15.36,20.557 h 6.012 V 0 h -5.12 L 16.136,12.334 H 15.36 L 6.245,0 Z" /></g><g
       id="g20"><g
         clip-path="url(#clipPath26)"
         id="g22"><g
           transform="translate(115.6738,84.5755)"
           id="g28"><path
             id="path30"
             style="fill:#3e70bc;fill-opacity:1;fill-rule:nonzero;stroke:none"
             d="m 0,0 h -4.965 c -2.043,-3.394 -4.086,-6.788 -6.128,-10.182 v -0.155 c 2.405,-3.407 4.809,-6.814 7.214,-10.22 h 4.965 c -2.431,3.374 -4.861,6.749 -7.292,10.123 v 0.414 C -4.138,-6.68 -2.069,-3.34 0,0" /></g><g
           transform="translate(115.6738,84.5755)"
           id="g32"><path
             id="path34"
             style="fill:none;stroke:#3e70bc;stroke-width:1;stroke-linecap:butt;stroke-linejoin:miter;stroke-miterlimit:10;stroke-dasharray:none;stroke-opacity:1"
             d="m 0,0 h -4.965 c -2.043,-3.394 -4.086,-6.788 -6.128,-10.182 v -0.155 c 2.405,-3.407 4.809,-6.814 7.214,-10.22 h 4.965 c -2.431,3.374 -4.861,6.749 -7.292,10.123 v 0.414 C -4.138,-6.68 -2.069,-3.34 0,0 Z" /></g><g
           transform="translate(119.8237,84.5755)"
           id="g36"><path
             id="path38"
             style="fill:#3e70bc;fill-opacity:1;fill-rule:nonzero;stroke:none"
             d="m 0,0 h 12.024 c 2.68,-1.205 4.33,-3.843 4.151,-6.555 -0.209,-3.158 -2.799,-4.897 -3.103,-5.094 -0.724,-0.569 -1.448,-1.138 -2.173,-1.707 1.765,-2.355 3.528,-4.71 5.292,-7.065 h -6.067 c -2.561,3.458 -5.12,6.917 -7.68,10.375 1.922,0.007 3.844,0.014 5.766,0.021 1.58,-0.09 3.019,0.916 3.465,2.403 0.466,1.551 -0.261,3.251 -1.732,4.002 C 9.46,-3.622 8.978,-3.625 8.495,-3.626 L 0,-3.588 Z" /></g><g
           transform="translate(119.8237,84.5755)"
           id="g40"><path
             id="path42"
             style="fill:none;stroke:#3e70bc;stroke-width:1;stroke-linecap:butt;stroke-linejoin:miter;stroke-miterlimit:10;stroke-dasharray:none;stroke-opacity:1"
             d="m 0,0 h 12.024 c 2.68,-1.205 4.33,-3.843 4.151,-6.555 -0.209,-3.158 -2.799,-4.897 -3.103,-5.094 -0.724,-0.569 -1.448,-1.138 -2.173,-1.707 1.765,-2.355 3.528,-4.71 5.292,-7.065 h -6.067 c -2.561,3.458 -5.12,6.917 -7.68,10.375 1.922,0.007 3.844,0.014 5.766,0.021 1.58,-0.09 3.019,0.916 3.465,2.403 0.466,1.551 -0.261,3.251 -1.732,4.002 C 9.46,-3.622 8.978,-3.625 8.495,-3.626 L 0,-3.588 Z" /></g><g
           transform="translate(165.4512,84.5755)"
           id="g44"><path
             id="path46"
             style="fill:#3e70bc;fill-opacity:1;fill-rule:nonzero;stroke:none"
             d="m 0,0 h 3.982 v -17.26 h 7.137 v -3.161 L 0,-20.312 Z" /></g><g
           transform="translate(165.4512,84.5755)"
           id="g48"><path
             id="path50"
             style="fill:none;stroke:#3e70bc;stroke-width:1;stroke-linecap:butt;stroke-linejoin:miter;stroke-miterlimit:10;stroke-dasharray:none;stroke-opacity:1"
             d="m 0,0 h 3.982 v -17.26 h 7.137 v -3.161 L 0,-20.312 Z" /></g><g
           transform="translate(196.0605,84.8114)"
           id="g52"><path
             id="path54"
             style="fill:#63c661;fill-opacity:1;fill-rule:nonzero;stroke:none"
             d="M 0,0 H -15.821 V -21.067 Z" /></g><g
           transform="translate(187.1748,63.744)"
           id="g56"><path
             id="path58"
             style="fill:#63c661;fill-opacity:1;fill-rule:nonzero;stroke:none"
             d="M 0,0 H 8.886 V 12.21 Z" /></g><g
           transform="translate(202.7295,84.8114)"
           id="g60"><path
             id="path62"
             style="fill:#63c661;fill-opacity:1;fill-rule:nonzero;stroke:none"
             d="m 0,0 h 5.312 v -5.303 l -3.746,-5.231 3.746,-6.004 v -4.529 H 0 V 0.162" /></g><g
           transform="translate(208.042,68.2733)"
           id="g64"><path
             id="path66"
             style="fill:#63c661;fill-opacity:1;fill-rule:nonzero;stroke:none"
             d="M 0,0 C 1.031,-1.51 2.063,-3.02 3.095,-4.529 H 9.936 L 1.528,6.004 9.21,16.538 H 3.248 C 2.165,14.771 1.082,13.003 0,11.235 Z" /></g><g
           transform="translate(162.5332,74.995)"
           id="g68"><path
             id="path70"
             style="fill:#3e70bc;fill-opacity:1;fill-rule:nonzero;stroke:none"
             d="m 0,0 c 0.038,-6.205 -6.139,-10.863 -12.067,-10.612 -5.391,0.227 -10.987,4.532 -11.012,10.496 -0.025,5.988 5.579,10.351 11.012,10.589 C -6.177,10.731 -0.038,6.157 0,0" /></g><g
           transform="translate(162.5332,74.995)"
           id="g72"><path
             id="path74"
             style="fill:none;stroke:#3e70bc;stroke-width:1;stroke-linecap:butt;stroke-linejoin:miter;stroke-miterlimit:10;stroke-dasharray:none;stroke-opacity:1"
             d="m 0,0 c 0.038,-6.205 -6.139,-10.863 -12.067,-10.612 -5.391,0.227 -10.987,4.532 -11.012,10.496 -0.025,5.988 5.579,10.351 11.012,10.589 C -6.177,10.731 -0.038,6.157 0,0 Z" /></g><g
           transform="translate(157.6074,75.0726)"
           id="g76"><path
             id="path78"
             style="fill:#fcfcfc;fill-opacity:1;fill-rule:nonzero;stroke:none"
             d="m 0,0 c 0.085,-3.78 -3.28,-6.811 -6.937,-6.605 -3.279,0.184 -6.149,2.934 -6.173,6.411 -0.025,3.492 2.829,6.311 6.173,6.505 C -3.35,6.518 -0.082,3.652 0,0" /></g><g
           transform="translate(157.6074,75.0726)"
           id="g80"><path
             id="path82"
             style="fill:none;stroke:#3e70bc;stroke-width:1;stroke-linecap:butt;stroke-linejoin:miter;stroke-miterlimit:10;stroke-dasharray:none;stroke-opacity:1"
             d="m 0,0 c 0.085,-3.78 -3.28,-6.811 -6.937,-6.605 -3.279,0.184 -6.149,2.934 -6.173,6.411 -0.025,3.492 2.829,6.311 6.173,6.505 C -3.35,6.518 -0.082,3.652 0,0 Z" /></g></g></g></g></svg>